<?xml version="1.0" standalone="no"?>
<!DOCTYPE svg PUBLIC "-//W3C//DTD SVG 20010904//EN"
 "http://www.w3.org/TR/2001/REC-SVG-20010904/DTD/svg10.dtd">
<svg version="1.0" xmlns="http://www.w3.org/2000/svg"
 width="500.000000pt" height="500.000000pt" viewBox="0 0 500.000000 500.000000"
 preserveAspectRatio="xMidYMid meet">

<g transform="translate(0.000000,500.000000) scale(0.100000,-0.100000)"
fill="#000000" stroke="none">
<path d="M2340 4874 c-19 -2 -77 -9 -128 -15 -210 -24 -441 -87 -652 -176
-639 -271 -1145 -840 -1339 -1507 -156 -535 -124 -1105 89 -1603 270 -629 786
-1107 1425 -1322 278 -93 473 -125 765 -125 293 0 487 32 765 125 349 118 662
313 920 573 365 369 589 821 671 1356 22 141 25 470 5 610 -85 617 -381 1155
-849 1543 -335 278 -733 453 -1182 522 -101 15 -418 28 -490 19z m1645 -1278
c63 -27 66 -45 63 -337 l-3 -261 -33 -29 c-32 -29 -34 -29 -150 -29 -92 0
-126 -4 -158 -19 -83 -38 -115 -131 -75 -215 36 -74 70 -89 224 -94 125 -5
131 -6 161 -33 l31 -27 3 -258 c3 -277 0 -299 -47 -331 -22 -15 -53 -18 -207
-21 l-181 -4 -5 -93 c-6 -115 -34 -180 -108 -249 -73 -68 -127 -90 -225 -91
-71 0 -88 4 -147 33 -72 35 -118 82 -159 162 -18 35 -24 66 -27 143 l-4 97
-164 0 -164 0 0 160 c0 88 4 160 8 160 20 0 95 76 116 119 55 107 40 216 -41
302 -25 26 -54 51 -64 54 -16 5 -19 16 -19 73 0 51 3 63 12 54 9 -9 100 -12
349 -12 317 0 338 1 360 19 l24 19 3 331 c2 284 1 335 -13 361 l-16 30 311 0
c246 0 318 -3 345 -14z m-2122 -129 c67 -31 134 -98 166 -167 19 -43 26 -76
29 -147 l4 -93 164 0 164 0 0 -160 c0 -133 -2 -160 -15 -160 -27 0 -112 -96
-129 -146 -40 -118 5 -253 104 -314 l39 -25 1 -69 c0 -66 -1 -68 -18 -53 -17
15 -56 17 -356 17 l-337 0 -24 -25 -25 -24 0 -326 c0 -273 2 -331 15 -355 l16
-30 -306 0 c-338 0 -361 3 -390 60 -14 26 -16 67 -13 290 l3 260 28 27 c27 27
32 28 160 33 155 6 191 21 226 94 26 54 26 88 0 142 -35 73 -69 87 -226 92
l-133 5 -30 34 -30 34 0 254 c0 271 3 291 49 322 22 15 54 19 207 21 l181 4 5
96 c5 104 27 163 84 231 85 102 260 137 387 78z m1037 -204 c-1 -111 -6 -128
-45 -151 -16 -9 24 -11 178 -12 190 0 197 -1 197 -20 0 -19 -7 -20 -260 -20
-253 0 -260 1 -260 20 0 15 7 20 28 21 24 0 25 1 7 9 -40 16 -47 35 -21 59 20
19 27 21 44 10 38 -24 52 -6 52 66 l0 65 -45 0 c-43 0 -45 1 -45 30 l0 30 85
0 85 0 0 -107z m281 70 c26 -26 33 -41 37 -86 4 -52 2 -57 -31 -93 l-35 -39
-106 -3 -106 -4 0 132 0 132 105 -4 c102 -3 105 -4 136 -35z m-576 -677 c40
-17 55 -42 55 -91 0 -28 -9 -45 -39 -78 -38 -40 -41 -41 -58 -25 -16 17 -16
19 15 51 38 39 41 71 8 92 -27 18 -48 12 -80 -24 -24 -26 -56 -28 -56 -3 0 30
72 88 113 91 4 1 23 -5 42 -13z m-18 -82 c8 -22 -139 -169 -161 -161 -30 12
-16 40 52 109 69 68 97 82 109 52z m-149 -45 c1 -8 -11 -33 -28 -54 -27 -34
-29 -40 -17 -59 23 -34 55 -32 93 5 33 32 35 32 52 16 16 -17 15 -20 -25 -58
-47 -43 -83 -50 -133 -24 -37 19 -55 70 -40 111 24 63 90 105 98 63z m-470
-629 c39 -24 46 -25 38 -4 -5 12 2 15 40 12 l46 -3 32 -76 31 -76 34 78 33 79
40 0 c34 0 39 -3 34 -17 -4 -10 -28 -69 -54 -131 l-47 -112 -43 2 -44 3 -46
108 -45 108 -28 -27 c-26 -25 -29 -25 -50 -10 -49 34 -109 5 -109 -54 0 -58
70 -92 112 -53 17 15 20 15 43 -7 28 -26 22 -41 -26 -66 -38 -19 -86 -17 -136
5 -49 23 -73 62 -73 121 0 59 24 98 73 121 54 24 104 24 145 -1z m332 -290 c0
-20 -7 -20 -285 -20 -278 0 -285 0 -285 20 0 20 7 20 285 20 278 0 285 0 285
-20z"/>
<path d="M3030 3240 l0 -73 38 6 c39 7 72 37 72 67 0 30 -33 60 -72 67 l-38 6
0 -73z"/>
</g>
</svg>
